# xmcd
#
# Track frame offsets: 
#        302
#        19174
#        36679
#        53741
#        71884
#        89842
#        109029
#        128366
#        139836
#        156154
#
# Disc length: 2222 seconds
#
# Revision: 0
# Processed by: cddbd v1.5.2PL0 Copyright (c) Steve Scherf et al.
# Submitted via: ExactAudioCopyFreeDBPlugin 1.0
#
DISCID=9108aa0a
DTITLE=Andreas Bo - Skillevej
DYEAR=2017
DGENRE=Folk/Rock
TTITLE0=Au Pair
TTITLE1=Det jeg ikke fik sagt
TTITLE2=Skillevej
TTITLE3=Gi mig i dag
TTITLE4=Ida W.
TTITLE5=Forandringen
TTITLE6=Kærligheden kalder dig hjem
TTITLE7=Forkælet
TTITLE8=Hvem tror du du er
TTITLE9=Pandora
EXTD=
EXTT0=
EXTT1=
EXTT2=
EXTT3=
EXTT4=
EXTT5=
EXTT6=
EXTT7=
EXTT8=
EXTT9=
PLAYORDER=
